<?xml version="1.0" ?><!DOCTYPE svg  PUBLIC '-//W3C//DTD SVG 1.1//EN'  'http://www.w3.org/Graphics/SVG/1.1/DTD/svg11.dtd'><svg enable-background="new 0 0 64 64" height="64px" id="Layer_1" version="1.1" viewBox="0 0 64 64" width="64px" xml:space="preserve" xmlns="http://www.w3.org/2000/svg" xmlns:xlink="http://www.w3.org/1999/xlink"><g><path d="M63.888,36.8c0-0.933-0.759-1.69-1.69-1.69c-0.119,0-0.226,0.045-0.339,0.068l-0.018-0.029   c0,0-0.087-0.005-0.274,0.089c-0.032,0.014-0.06,0.033-0.092,0.05c-0.087,0.049-0.196,0.123-0.324,0.217   c-0.057,0.048-0.122,0.085-0.176,0.14c-0.432,0.352-1.054,0.963-1.935,2.018l0.003-0.018c-6.312,7.963-16.056,13.083-27.006,13.083   c-11.17,0-21.09-5.317-27.388-13.554c-0.011-0.013-0.021-0.018-0.034-0.032c0,0-0.822-1.114-1.439-1.742   c-0.046-0.051-0.094-0.097-0.145-0.143c-0.076-0.07-0.149-0.136-0.213-0.181c-0.032-0.022-0.061-0.015-0.091-0.025   C2.47,34.906,2.189,34.8,1.874,34.8c-0.973,0-1.762,0.789-1.762,1.762c0,0.369,0.14,0.693,0.335,0.977   c0,0.017,0.002,0.038,0.003,0.046c5.324,12.163,17.459,20.665,31.586,20.665c13.281,0,24.79-7.525,30.542-18.536   c0.021-0.034,0.042-0.058,0.062-0.095c0.643-1.156,0.955-1.85,1.099-2.192c0.018-0.044,0.038-0.089,0.053-0.135   c0.033-0.085,0.048-0.128,0.048-0.128l-0.021-0.006C63.849,37.041,63.888,36.928,63.888,36.8z" fill="#241F20"/><path d="M12.305,21.025l0.016,0.01c0,0,1.351-0.772,0.527,1.058c-0.016,0.034-0.017,0.054-0.029,0.083   c-3.148,6.229-2.269,12.344-0.565,16.942c0.053,0.13,0.151,0.334,0.273,0.56l-0.006-0.001c0,0,0.051,0.091,0.146,0.234   c0.195,0.325,0.442,0.67,0.773,0.991c0.959,1.065,2.706,2.508,5.401,2.998c0.399,0.112,1.042,0.235,1.708,0.173   c0.017,0,0.033,0.003,0.051,0.003c-0.001-0.003-0.003-0.005-0.004-0.009c0.467-0.049,0.938-0.187,1.334-0.511   c0.018-0.015,0.032-0.019,0.049-0.032c2.421-2.17,5.469-3.75,9.249-3.75c3.017-0.029,6.639,1.665,9.689,4.413l0.003-0.004   c0,0,1.285,1.103,2.94,0.387c0.484-0.202,0.987-0.418,1.499-0.647c1.518-0.68,1.833-2.421,1.849-2.497   c0.068-0.625,0.112-1.259,0.112-1.904c0-3.564-0.943-6.877-2.55-9.668v-0.003c0,0-0.717-1.204,0.339-1.81   c1.471-0.756,2.943-0.519,3.943-0.161c0.339,0.143,0.663,0.324,0.984,0.506c0.503,0.399,2.856,2.415,3.723,5.883   c0.065,0.323,0.125,0.651,0.163,0.998l0,0c0.003,0.006,0.003,0.011,0.003,0.017c0.015,0.091,0.244,1.333,1.518,0.21l3.461-3.061   c0.003-0.001,0.003-0.003,0.006-0.006c0.824-0.73,0.753-1.646,0.679-2.018c-1.288-4.831-5.195-8.347-9.825-8.347   c-2.544,0-4.854,1.082-6.645,2.845c-0.027,0.02-0.048,0.03-0.077,0.055c-1.196,1.034-2.033,0.318-2.033,0.318l-0.006,0.001   c-2.711-2.327-6.091-3.727-9.775-3.727c-1.289,0-2.534,0.193-3.731,0.518c-0.034,0.006-0.051-0.001-0.086,0.004   c-1.837,0.384-1.105-1.238-1.105-1.238s-0.022,0.006-0.028,0.006c0.99-3.153,0.915-7.6-0.54-10.147   C20.279,2.409,10.138,6.693,7.08,8.248c-0.815,0.392-0.624,1.001-0.522,1.22c0.014,0.027,0.027,0.052,0.041,0.08   c0,0,0.003,0.006,0.003,0.006c0.206,0.411,0.49,0.991,0.884,1.809c0.117,0.283,0.274,0.885-0.285,1.294   c-0.004,0.001-0.002,0.003-0.005,0.006c-2.112,1.418-4.487,4.01-2.663,6.862C6.242,22.195,9.385,22.243,12.305,21.025z    M23.414,20.066l0.044-0.258c-0.014,0.088-0.029,0.173-0.044,0.259V20.066z" fill="#241F20"/></g></svg>